ply
format ascii 1.0
element vertex 18
property float x
property float y
property float z
property uchar red
property uchar green
property uchar blue
end_header
0.539673 -0.020145 0.533960 120 168 219
0.539674 -0.010009 0.533960 99 148 196
0.539676 0.010011 0.533960 92 139 186
0.539677 0.020148 0.533960 68 119 167
0.550063 -0.020146 0.533960 74 125 176
0.550064 -0.010009 0.533976 84 138 188
0.550066 0.010010 0.533976 80 130 177
0.550067 0.020147 0.533960 84 134 185
0.556014 0.152704 0.446621 76 123 169
0.553108 0.169464 0.446739 80 131 180
0.559224 0.180246 0.446743 101 149 200
0.564888 -0.020148 0.533960 73 120 168
0.564889 -0.010011 0.533960 74 122 170
0.564891 0.010009 0.533960 75 125 175
0.564892 0.020146 0.533960 70 118 166
0.567945 0.153401 0.446525 76 129 173
0.566693 0.168814 0.446686 74 119 163
0.565840 0.181173 0.446752 68 117 164
